<svg width="20" height="19" viewBox="0 0 20 19" fill="none" xmlns="http://www.w3.org/2000/svg">
<path fill-rule="evenodd" clip-rule="evenodd" d="M18.781 1.219C18.8508 1.28867 18.9063 1.37143 18.9441 1.46255C18.9819 1.55367 19.0013 1.65135 19.0013 1.75C19.0013 1.84865 18.9819 1.94633 18.9441 2.03745C18.9063 2.12857 18.8508 2.21133 18.781 2.281L2.281 18.781C2.14017 18.9218 1.94916 19.0009 1.75 19.0009C1.55083 19.0009 1.35983 18.9218 1.219 18.781C1.07817 18.6402 0.999051 18.4492 0.999051 18.25C0.999051 18.0508 1.07817 17.8598 1.219 17.719L17.719 1.219C17.7887 1.14915 17.8714 1.09374 17.9625 1.05593C18.0537 1.01812 18.1513 0.998657 18.25 0.998657C18.3486 0.998657 18.4463 1.01812 18.5374 1.05593C18.6286 1.09374 18.7113 1.14915 18.781 1.219Z" fill="#212529"/>
<path fill-rule="evenodd" clip-rule="evenodd" d="M1.219 1.219C1.14915 1.28867 1.09374 1.37143 1.05593 1.46255C1.01812 1.55367 0.998657 1.65135 0.998657 1.75C0.998657 1.84865 1.01812 1.94633 1.05593 2.03745C1.09374 2.12857 1.14915 2.21133 1.219 2.281L17.719 18.781C17.8598 18.9218 18.0508 19.0009 18.25 19.0009C18.4492 19.0009 18.6402 18.9218 18.781 18.781C18.9218 18.6402 19.0009 18.4492 19.0009 18.25C19.0009 18.0508 18.9218 17.8598 18.781 17.719L2.281 1.219C2.21133 1.14915 2.12857 1.09374 2.03745 1.05593C1.94633 1.01812 1.84865 0.998657 1.75 0.998657C1.65135 0.998657 1.55367 1.01812 1.46255 1.05593C1.37143 1.09374 1.28867 1.14915 1.219 1.219Z" fill="#212529"/>
</svg>
