<svg width="40" height="41" viewBox="0 0 40 41" fill="none" xmlns="http://www.w3.org/2000/svg">
<g clip-path="url(#clip0_56_2450)">
<path d="M20.9375 9.35747C23.5215 9.35747 25.6163 7.26273 25.6163 4.67874C25.6163 2.09474 23.5215 0 20.9375 0C18.3535 0 16.2588 2.09474 16.2588 4.67874C16.2588 7.26273 18.3535 9.35747 20.9375 9.35747Z" fill="#FEA102"/>
<path d="M20.9376 40.0015C22.4878 40.0015 23.7445 38.7448 23.7445 37.1946C23.7445 35.6443 22.4878 34.3876 20.9376 34.3876C19.3873 34.3876 18.1306 35.6443 18.1306 37.1946C18.1306 38.7448 19.3873 40.0015 20.9376 40.0015Z" fill="#FEA102"/>
<path d="M9.44115 13.6506C11.7669 13.6506 13.6523 11.7652 13.6523 9.43944C13.6523 7.11367 11.7669 5.22827 9.44115 5.22827C7.11538 5.22827 5.22998 7.11367 5.22998 9.43944C5.22998 11.7652 7.11538 13.6506 9.44115 13.6506Z" fill="#FEA102"/>
<path d="M32.4341 34.7702C33.7261 34.7702 34.7735 33.7229 34.7735 32.4309C34.7735 31.1389 33.7261 30.0915 32.4341 30.0915C31.1421 30.0915 30.0947 31.1389 30.0947 32.4309C30.0947 33.7229 31.1421 34.7702 32.4341 34.7702Z" fill="#FEA102"/>
<path d="M4.67885 24.6795C6.74554 24.6795 8.42092 23.0041 8.42092 20.9374C8.42092 18.8707 6.74554 17.1953 4.67885 17.1953C2.61215 17.1953 0.936768 18.8707 0.936768 20.9374C0.936768 23.0041 2.61215 24.6795 4.67885 24.6795Z" fill="#FEA102"/>
<path d="M37.1947 22.8062C38.2277 22.8062 39.065 21.9688 39.065 20.9359C39.065 19.903 38.2277 19.0656 37.1947 19.0656C36.1618 19.0656 35.3245 19.903 35.3245 20.9359C35.3245 21.9688 36.1618 22.8062 37.1947 22.8062Z" fill="#FEA102"/>
<path d="M7.12607 30.1188C5.84632 31.3985 5.84632 33.4692 7.12607 34.7489C8.4043 36.0287 10.478 36.0287 11.7562 34.7489C13.036 33.4692 13.036 31.3985 11.7562 30.1188C10.478 28.8375 8.40581 28.8254 7.12607 30.1188Z" fill="#FEA102"/>
<path d="M32.4325 10.8422C33.2072 10.8422 33.8352 10.2141 33.8352 9.43945C33.8352 8.66476 33.2072 8.03674 32.4325 8.03674C31.6578 8.03674 31.0298 8.66476 31.0298 9.43945C31.0298 10.2141 31.6578 10.8422 32.4325 10.8422Z" fill="#FEA102"/>
</g>
<defs>
<clipPath id="clip0_56_2450">
<rect width="40" height="40.0015" fill="white"/>
</clipPath>
</defs>
</svg>
