<svg width="42" height="42" viewBox="0 0 42 42" fill="none" xmlns="http://www.w3.org/2000/svg">
<path d="M26.241 15.6062C26.4393 15.577 26.6876 15.5633 26.9256 15.5026C30.8806 14.4856 34.8391 13.4806 38.7855 12.4315C40.5222 11.97 41.0782 10.953 40.4496 9.21205C39.2862 5.99563 37.4677 3.19123 35.0339 0.854826C33.7236 -0.403283 32.5712 -0.261575 31.511 1.20672C29.0356 4.63511 26.596 8.09089 24.1385 11.5324C23.5427 12.366 23.4983 13.249 23.961 14.1403C24.4323 15.0471 25.1664 15.5752 26.241 15.6062Z" fill="#151415"/>
<path d="M16.8701 14.3873C17.4732 13.2894 17.393 12.2902 16.5629 11.3229C13.9357 8.26256 11.3038 5.2065 8.65251 2.16741C7.31035 0.628694 6.09406 0.597072 4.77813 2.23777C3.58909 3.72011 1.26021 7.85532 0.129592 11.0493C-0.29812 12.6956 0.33838 13.6253 1.95782 13.8724C6.02945 14.4956 10.1077 15.0783 14.1854 15.6647C15.4562 15.8457 16.2985 15.427 16.8701 14.3873Z" fill="#FEA102"/>
<path d="M39.5591 24.9203C35.5182 23.5235 31.4802 22.1219 27.4352 20.7393C26.4494 20.4023 25.5972 20.7078 24.9414 21.5193C24.2563 22.3684 23.9573 23.3574 24.545 24.3529C26.8348 28.2189 29.1541 32.0659 31.498 35.8968C32.0644 36.8244 32.9673 37.0227 33.9377 36.5434C34.352 36.3398 34.7501 36.0707 35.0947 35.7587C37.3252 33.7384 39.1442 31.3776 40.4868 28.6399C40.7461 28.1088 40.8746 27.5098 41.0636 26.9412C41.0065 25.8623 40.4804 25.2389 39.5591 24.9203Z" fill="#FEA102"/>
<path d="M19.6214 25.917C19.6156 24.6732 19.1454 23.945 18.1256 23.5258C17.036 23.0793 16.023 23.2841 15.2653 24.2058C12.5612 27.496 9.86514 30.7934 7.19618 34.1141C6.18725 35.3704 6.2927 36.5582 7.59722 37.4835C10.4771 39.524 13.6877 40.7488 17.1656 41.1048C18.7248 41.2638 19.5321 40.3981 19.5494 38.7726C19.573 36.6297 19.5551 34.4874 19.5551 32.3445C19.5787 32.3445 19.6018 32.3445 19.6243 32.3445C19.6243 30.2022 19.6323 28.0593 19.6214 25.917Z" fill="#151415"/>
</svg>
