<svg width="40" height="40" viewBox="0 0 40 40" fill="none" xmlns="http://www.w3.org/2000/svg">
<rect width="40" height="40" rx="5" fill="#FFE0AB"/>
<path fill-rule="evenodd" clip-rule="evenodd" d="M14.7125 16.187C14.2865 16.187 13.9415 15.8315 14.0075 15.4115C14.42 12.86 16.364 11 19.7375 11C23.1125 11 25.388 13.04 25.388 15.8225C25.388 17.8385 24.3905 19.2545 22.703 20.282C21.053 21.2705 20.582 21.959 20.582 23.297V23.342C20.582 23.5409 20.503 23.7317 20.3623 23.8723C20.2217 24.013 20.0309 24.092 19.832 24.092H18.677C18.4794 24.092 18.2898 24.014 18.1493 23.875C18.0089 23.736 17.929 23.5471 17.927 23.3495L17.9225 23.0495C17.858 21.218 18.638 20.048 20.39 18.9815C21.935 18.0335 22.4855 17.279 22.4855 15.9395C22.4855 14.471 21.3485 13.3925 19.5965 13.3925C18.083 13.3925 17.0315 14.186 16.6895 15.4955C16.5905 15.8765 16.2725 16.187 15.8795 16.187H14.714H14.7125ZM19.244 29C20.177 29 20.8865 28.289 20.8865 27.365C20.8865 26.438 20.177 25.727 19.244 25.727C18.335 25.727 17.6135 26.438 17.6135 27.3635C17.6135 28.289 18.335 29 19.244 29Z" fill="#FEA102"/>
</svg>
