<svg width="40" height="40" viewBox="0 0 40 40" fill="none" xmlns="http://www.w3.org/2000/svg">
<rect width="40" height="40" rx="5" fill="#FFE0AB"/>
<path d="M12.5 22.25C11.9033 22.25 11.331 22.0129 10.909 21.591C10.4871 21.169 10.25 20.5967 10.25 20C10.25 19.4033 10.4871 18.831 10.909 18.409C11.331 17.9871 11.9033 17.75 12.5 17.75C13.0967 17.75 13.669 17.9871 14.091 18.409C14.5129 18.831 14.75 19.4033 14.75 20C14.75 20.5967 14.5129 21.169 14.091 21.591C13.669 22.0129 13.0967 22.25 12.5 22.25ZM20 22.25C19.4033 22.25 18.831 22.0129 18.409 21.591C17.9871 21.169 17.75 20.5967 17.75 20C17.75 19.4033 17.9871 18.831 18.409 18.409C18.831 17.9871 19.4033 17.75 20 17.75C20.5967 17.75 21.169 17.9871 21.591 18.409C22.0129 18.831 22.25 19.4033 22.25 20C22.25 20.5967 22.0129 21.169 21.591 21.591C21.169 22.0129 20.5967 22.25 20 22.25ZM27.5 22.25C26.9033 22.25 26.331 22.0129 25.909 21.591C25.4871 21.169 25.25 20.5967 25.25 20C25.25 19.4033 25.4871 18.831 25.909 18.409C26.331 17.9871 26.9033 17.75 27.5 17.75C28.0967 17.75 28.669 17.9871 29.091 18.409C29.5129 18.831 29.75 19.4033 29.75 20C29.75 20.5967 29.5129 21.169 29.091 21.591C28.669 22.0129 28.0967 22.25 27.5 22.25Z" fill="#FEA102"/>
</svg>
